<?xml version="1.0" encoding="UTF-8" standalone="no"?>
<!-- Created with Inkscape (http://www.inkscape.org/) -->

<svg
   xmlns:dc="http://purl.org/dc/elements/1.1/"
   xmlns:cc="http://creativecommons.org/ns#"
   xmlns:rdf="http://www.w3.org/1999/02/22-rdf-syntax-ns#"
   xmlns:svg="http://www.w3.org/2000/svg"
   xmlns="http://www.w3.org/2000/svg"
   xmlns:sodipodi="http://sodipodi.sourceforge.net/DTD/sodipodi-0.dtd"
   xmlns:inkscape="http://www.inkscape.org/namespaces/inkscape"
   width="23.944792mm"
   height="23.951326mm"
   viewBox="0 0 23.944792 23.951326"
   version="1.1"
   id="svg1684"
   inkscape:version="0.92.3 (2405546, 2018-03-11)"
   sodipodi:docname="Logo.svg">
  <defs
     id="defs1678" />
  <sodipodi:namedview
     id="base"
     pagecolor="#ffffff"
     bordercolor="#666666"
     borderopacity="1.0"
     inkscape:pageopacity="0.0"
     inkscape:pageshadow="2"
     inkscape:zoom="1.979899"
     inkscape:cx="-23.021505"
     inkscape:cy="159.25741"
     inkscape:document-units="mm"
     inkscape:current-layer="layer1"
     showgrid="false"
     fit-margin-top="0"
     fit-margin-left="0"
     fit-margin-right="0"
     fit-margin-bottom="0"
     inkscape:window-width="1596"
     inkscape:window-height="861"
     inkscape:window-x="0"
     inkscape:window-y="18"
     inkscape:window-maximized="0" />
  <metadata
     id="metadata1681">
    <rdf:RDF>
      <cc:Work
         rdf:about="">
        <dc:format>image/svg+xml</dc:format>
        <dc:type
           rdf:resource="http://purl.org/dc/dcmitype/StillImage" />
        <dc:title></dc:title>
      </cc:Work>
    </rdf:RDF>
  </metadata>
  <g
     inkscape:label="Layer 1"
     inkscape:groupmode="layer"
     id="layer1"
     transform="translate(-50.015698,-76.381478)">
    <circle
       r="11.972396"
       cy="88.353874"
       cx="61.988094"
       id="path1799"
       style="fill:#e5d9c9;fill-opacity:1;stroke:none;stroke-width:0.1;stroke-linecap:round;stroke-linejoin:round;stroke-miterlimit:4;stroke-dasharray:none;stroke-opacity:1;paint-order:stroke fill markers" />
    <g
       transform="matrix(0.87431533,-0.87431533,0.79001181,0.79001181,-116.0206,154.60153)"
       id="g1781"
       inkscape:export-filename="/home/digglesby/PRTScannerTest4.png"
       inkscape:export-xdpi="164.01544"
       inkscape:export-ydpi="164.01544">
      <path
         sodipodi:nodetypes="ccccc"
         inkscape:connector-curvature="0"
         id="path1771"
         transform="matrix(0.15130887,0.1674553,-0.15130887,0.1674553,247.69308,13.520959)"
         d="M -219.50818,532.73032 -231.25,544.49805 v 8.95898 l 14.85547,-14.85547 z"
         style="fill:#7a4674;fill-opacity:1;stroke:none;stroke-width:17.76901436;stroke-miterlimit:4;stroke-dasharray:none;stroke-opacity:1" />
      <path
         inkscape:connector-curvature="0"
         id="path1773"
         transform="matrix(0.15130887,0.1674553,-0.15130887,0.1674553,247.69308,13.520959)"
         d="M -216.07227,539.2168 -231.25,554.39453 v 8.95703 l 19.38281,-19.38281 z"
         style="fill:#a4344a;fill-opacity:1;stroke:none;stroke-width:17.76901436;stroke-miterlimit:4;stroke-dasharray:none;stroke-opacity:1" />
      <path
         inkscape:connector-curvature="0"
         id="path1775"
         transform="matrix(0.15130887,0.1674553,-0.15130887,0.1674553,247.69308,13.520959)"
         d="M -213.42578,546.31836 -231.25,564.14258 v 8.87695 h 0.082 l 24.14453,-24.14453 z"
         style="fill:#c24146;fill-opacity:1;stroke:none;stroke-width:17.76901436;stroke-miterlimit:4;stroke-dasharray:none;stroke-opacity:1" />
      <path
         inkscape:connector-curvature="0"
         id="path1777"
         transform="matrix(0.15130887,0.1674553,-0.15130887,0.1674553,247.69308,13.520959)"
         d="m -208.39648,551.03906 -21.98243,21.98047 h 8.95899 l 16.32031,-16.32031 z"
         style="fill:#da6f37;fill-opacity:1;stroke:none;stroke-width:17.76901436;stroke-miterlimit:4;stroke-dasharray:none;stroke-opacity:1" />
      <path
         inkscape:connector-curvature="0"
         id="path1779"
         transform="matrix(0.15130887,0.1674553,-0.15130887,0.1674553,247.69308,13.520959)"
         d="m -203.11719,555.50586 -17.51367,17.51367 h 8.95898 l 12.33399,-12.33398 z"
         style="fill:#e8a353;fill-opacity:1;stroke:none;stroke-width:17.76901436;stroke-miterlimit:4;stroke-dasharray:none;stroke-opacity:1" />
    </g>
    <g
       id="g1769"
       transform="matrix(0.66700336,-0.66700336,0.66700336,0.66700336,-143.62426,63.123954)"
       style="fill:#191919;fill-opacity:1">
      <path
         style="fill:#191919;fill-opacity:1;stroke:none;stroke-width:0.12020305;stroke-linecap:round;stroke-linejoin:round;stroke-miterlimit:4;stroke-dasharray:none;stroke-opacity:1"
         d="m 127.60058,167.40398 a 0.48932033,0.48932033 0 0 0 -0.43979,0.31991 l -1.48334,4.45065 v 4.77056 h 0.9889 v -6.2e-4 c 0,-1.20304 0.98779,-2.19023 2.19084,-2.19023 1.20304,0 2.19272,0.98719 2.19272,2.19023 v 6.2e-4 h 8.33916 v -6.2e-4 c 0,-1.20304 0.98718,-2.19023 2.19023,-2.19023 1.20306,0 2.19023,0.98719 2.19023,2.19023 v 6.2e-4 h 0.99015 v -4.77056 l -1.48584,-4.45687 a 0.48932033,0.48932033 0 0 0 -0.43667,-0.31369 h -0.005 -1.25289 -13.97376 z m 1.02367,1.59019 h 1.39515 a 0.48932033,0.48932033 0 0 1 0.42861,0.45408 v 2.72629 0.95411 h -3.18038 v -0.95411 l 0.96778,-2.90209 a 0.48932033,0.48932033 0 0 1 0.38884,-0.27828 z m 3.83819,0 h 2.32503 a 0.48932033,0.48932033 0 0 1 0.4311,0.45097 v 3.68351 h -3.18038 v -3.73818 a 0.48932033,0.48932033 0 0 1 0.42425,-0.3963 z m 7.95591,0 h 1.397 a 0.48932033,0.48932033 0 0 1 0.39072,0.29009 l 0.96342,2.89028 v 0.95411 h -3.18037 v -0.95411 -2.75176 a 0.48932033,0.48932033 0 0 1 0.42923,-0.42861 z m -11.56053,6.36075 a 1.5901858,1.5901858 0 0 0 -1.59019,1.59018 1.5901858,1.5901858 0 0 0 1.59019,1.59019 1.5901858,1.5901858 0 0 0 1.59019,-1.59019 1.5901858,1.5901858 0 0 0 -1.59019,-1.59018 z m 12.72148,0 a 1.5901858,1.5901858 0 0 0 -1.59018,1.59018 1.5901858,1.5901858 0 0 0 1.59018,1.59019 1.5901858,1.5901858 0 0 0 1.59019,-1.59019 1.5901858,1.5901858 0 0 0 -1.59019,-1.59018 z"
         id="path1767"
         inkscape:connector-curvature="0" />
    </g>
  </g>
</svg>
