<?xml version="1.0" standalone="no"?>
<!DOCTYPE svg PUBLIC "-//W3C//DTD SVG 20010904//EN"
 "http://www.w3.org/TR/2001/REC-SVG-20010904/DTD/svg10.dtd">
<svg version="1.0" xmlns="http://www.w3.org/2000/svg"
 width="700.000000pt" height="700.000000pt" viewBox="0 0 700.000000 700.000000"
 preserveAspectRatio="xMidYMid meet">
<metadata>
Created by potrace 1.11, written by Peter Selinger 2001-2013
</metadata>
<g transform="translate(0.000000,700.000000) scale(0.100000,-0.100000)"
fill="#000000" stroke="none">
<path d="M3920 6109 c-14 -5 -899 -885 -1968 -1955 l-1942 -1946 0 -346 0
-347 535 535 c533 532 554 551 555 495 0 -6 -245 -255 -545 -555 l-545 -545 0
-345 0 -345 664 664 c637 637 665 663 672 637 6 -27 -30 -65 -665 -700 l-671
-671 2 -338 3 -337 345 345 c190 190 558 555 818 811 441 436 474 466 490 450
15 -15 -37 -70 -783 -816 l-800 -800 335 0 335 0 630 630 631 631 192 -193
192 -193 93 100 94 100 -38 48 c-84 106 -129 238 -129 377 0 280 183 516 455
585 77 20 212 19 294 -1 78 -19 185 -73 238 -119 l38 -34 811 811 812 811 -45
61 c-114 152 -150 337 -103 521 54 210 221 375 435 430 76 19 212 19 294 0 75
-18 183 -72 241 -122 l41 -35 96 97 95 98 -458 459 -459 460 -597 299 c-611
305 -626 312 -688 288z m585 -701 l380 -190 88 -86 c48 -48 87 -91 87 -97 0
-6 -137 -147 -305 -315 l-305 -305 -375 375 -375 376 0 47 c0 27 6 60 14 75 8
15 77 89 153 164 142 139 178 162 233 150 14 -3 196 -90 405 -194z m-1730
-1191 c26 -12 735 -719 735 -732 0 -6 -137 -147 -305 -315 l-305 -305 -370
370 c-259 259 -373 380 -381 403 -22 66 1 97 249 345 264 263 287 278 377 234z
m-930 -930 c26 -12 735 -719 735 -732 0 -6 -137 -147 -305 -315 l-305 -305
-96 95 -96 95 -190 380 c-200 400 -208 419 -175 480 9 17 76 90 150 163 161
160 200 180 282 139z"/>
<path d="M5412 4410 c-114 -24 -233 -112 -293 -216 -17 -30 -37 -88 -46 -130
-29 -145 13 -281 121 -390 178 -178 450 -174 623 9 28 29 60 72 72 95 120 234
9 519 -238 612 -61 24 -177 33 -239 20z"/>
<path d="M2932 1929 c-118 -23 -247 -122 -301 -230 -133 -266 26 -576 321
-630 282 -52 547 212 500 498 -41 246 -276 410 -520 362z"/>
</g>
</svg>
