<?xml version="1.0" encoding="UTF-8" standalone="no"?>
<svg
   xmlns:dc="http://purl.org/dc/elements/1.1/"
   xmlns:cc="http://creativecommons.org/ns#"
   xmlns:rdf="http://www.w3.org/1999/02/22-rdf-syntax-ns#"
   xmlns:svg="http://www.w3.org/2000/svg"
   xmlns="http://www.w3.org/2000/svg"
   id="svg1463"
   version="1.1"
   viewBox="0 0 131.39629 125.19455"
   height="125.19455mm"
   width="131.39629mm">
  <defs
     id="defs1457" />
  <metadata
     id="metadata1460">
    <rdf:RDF>
      <cc:Work
         rdf:about="">
        <dc:format>image/svg+xml</dc:format>
        <dc:type
           rdf:resource="http://purl.org/dc/dcmitype/StillImage" />
        <dc:title></dc:title>
      </cc:Work>
    </rdf:RDF>
  </metadata>
  <g
     transform="translate(20.340999,-1.5693911)"
     id="layer1">
    <path
       id="path1424"
       d="m 25.677007,66.729534 c 1.452639,4.866265 -2.697599,9.167027 -4.960938,12.170834 0.732489,-2.327455 -0.15458,-3.739499 -0.79375,-5.291667 l -0.992187,2.050521 c -0.104082,1.44308 -0.808016,2.636213 -1.653646,3.770312 l -0.926042,3.96875 14.089063,2.678907 -0.06615,-4.332552 c -1.268582,-2.662402 -0.356113,-4.56618 0.330729,-6.548438 -2.282801,1.771952 -3.716673,4.635849 -2.935224,7.563363 l -0.17363,0.374137 c -2.605208,-6.06634 3.906871,-8.309573 -0.66559,-16.240352 z m 51.686756,2.645834 -1.670182,0.149344 c -6.490811,10.271543 2.025068,13.597197 -1.756463,21.502047 -3.567033,0.14796 -3.722238,-0.42532 -3.931047,3.750675 l 18.829361,-2.794143 -1.01441,-5.31337 c -1.06042,-1.549546 -1.92979,-3.169671 -1.99006,-5.089097 l -1.20563,-2.772957 c -0.931201,2.02406 -2.1835,3.849227 -1.337363,6.975284 -2.839931,-4.105439 -8.112627,-10.032412 -5.924206,-16.407783 z m -31.249244,2.541963 c -7.464012,4.824606 -4.506045,12.584708 -7.211965,16.143719 l -0.06253,-0.407728 c 1.567087,-2.593301 0.989354,-5.743258 -0.708486,-8.081677 0.106601,2.095166 0.451462,4.177665 -1.509469,6.380488 l -1.272272,4.142383 14.277165,1.35754 0.218072,-4.06952 c -0.495689,-1.324975 -0.330285,-3.144991 0.722956,-5.095811 l 0.14366,-1.474846 c -1.74603,0.07275 -4.076118,2.663653 -4.021979,5.103048 -1.335539,-3.51595 -3.327648,-9.729745 -0.575156,-13.997596 z"
       style="fill:#c23114;fill-opacity:1;stroke:none;stroke-width:0.35117528px;stroke-linecap:butt;stroke-linejoin:miter;stroke-opacity:1" />
    <path
       id="path1426"
       d="m 66.460848,89.845355 0.423262,-2.108764 c 0.427407,-0.612161 0.582009,-1.564285 0.299929,-2.699813 l 0.120279,-0.772576 c 0.88292,0.266557 1.733622,1.896909 1.385491,3.136702 1.14455,-1.62174 2.979049,-4.536276 2.132769,-7.079385 3.181451,3.44664 0.650042,7.024727 1.56563,9.199396 l 0.0856,-0.200351 c -0.460348,-1.531437 0.248769,-3.065608 1.42381,-4.037859 -0.329729,1.056947 -0.779758,2.076204 -0.0668,3.459787 l 0.106148,2.284365 z"
       style="fill:#c23114;fill-opacity:1;stroke:none;stroke-width:0.13963744px;stroke-linecap:butt;stroke-linejoin:miter;stroke-opacity:1" />
    <path
       id="circle1378"
       d="M 17.076498,6.5848853 A 20.279832,20.279832 0 0 0 5.3940065,9.7412825 16.687223,15.709089 46.430608 0 0 -10.661344,12.905948 a 16.687223,15.709089 46.430608 0 0 0.119372,22.917462 16.687223,15.709089 46.430608 0 0 12.5170645,5.388819 20.279832,20.279832 0 0 0 13.0643205,5.837885 16.687223,15.709089 46.430608 0 0 2.831351,6.202207 16.28774,16.28774 0 0 0 4.366141,9.439735 16.28774,16.28774 0 0 0 19.208131,3.270599 16.28774,16.28774 0 0 0 9.679511,-0.05478 7.3074837,7.3074837 0 0 0 0.805119,1.02371 7.3074837,7.3074837 0 0 0 10.155452,0.409278 16.28774,16.28774 0 0 0 9.441275,0.836123 7.3074837,7.3074837 0 0 0 9.911028,-0.145727 7.3074837,7.3074837 0 0 0 1.408694,-8.722463 A 16.28774,16.28774 0 0 0 79.970332,41.033945 16.28774,16.28774 0 0 0 66.421814,36.086443 16.28774,16.28774 0 0 0 63.710861,32.22673 16.28774,16.28774 0 0 0 47.704601,27.717447 16.687223,15.709089 46.430608 0 0 43.600977,20.64501 16.687223,15.709089 46.430608 0 0 32.949429,15.350759 20.279832,20.279832 0 0 0 30.967639,12.871325 20.279832,20.279832 0 0 0 17.076498,6.5848853 Z"
       style="fill:#333333;fill-opacity:1;stroke:none;stroke-width:6.8281517;stroke-linecap:round;stroke-linejoin:round;stroke-miterlimit:4;stroke-dasharray:none;stroke-opacity:1;paint-order:stroke fill markers" />
    <path
       id="path1406"
       d="m 21.052487,59.768339 c -0.82614,-0.0666 -1.611029,0.371081 -1.98846,1.10898 l -8.397289,17.754732 -2.3923505,19.828298 4.1102495,0.495922 2.64e-4,-0.003 c 0.6033,-5.00032 5.203979,-8.60811 10.20431,-8.004802 5.000318,0.603332 8.618739,5.202772 8.015571,10.202961 l -2.65e-4,0.003 34.660729,4.18195 2.64e-4,-0.003 c 0.603322,-5.00028 5.201452,-8.608391 10.201813,-8.005051 5.000378,0.603322 8.60838,5.201501 8.005058,10.201791 l -2.64e-4,0.003 4.115415,0.49652 2.39238,-19.828266 -3.94066,-19.269599 c -0.19922,-0.792861 -0.85077,-1.391431 -1.657686,-1.522801 l -0.01849,-2.65e-4 -5.207521,-0.628348 -58.080281,-7.007612 z m 3.457321,7.122811 5.79878,0.699648 c 0.955821,0.236313 1.608289,1.119151 1.55375,2.10226 l -1.3672,11.331522 -0.47847,3.965639 -13.2189,-1.59493 0.47848,-3.965649 5.47782,-11.57687 c 0.378121,-0.604081 1.043019,-0.96833 1.7556,-0.9618 z m 15.952981,1.92478 9.663739,1.166 c 0.956059,0.230669 1.613281,1.1082 1.56564,2.090561 l -1.84723,15.31008 -13.218859,-1.594901 1.874629,-15.53733 c 0.26897,-0.85647 1.06436,-1.437831 1.96188,-1.434651 z m 33.067828,3.98979 5.806491,0.700611 c 0.706652,0.17163 1.269381,0.705109 1.478491,1.401659 l 2.554899,12.49625 -0.478499,3.96561 -13.218821,-1.59489 0.47848,-3.965649 1.379961,-11.437372 c 0.22334,-0.921919 1.050308,-1.570008 1.998829,-1.56637 z M 22.290798,93.446001 c -3.650321,-0.440471 -6.966471,2.161648 -7.40692,5.811908 -0.44045,3.650311 2.16169,6.966521 5.812009,7.406931 3.65029,0.44043 6.96649,-2.16167 7.406881,-5.81199 0.44042,-3.65029 -2.161699,-6.966461 -5.81197,-7.406849 z M 100.19469,108.4965 c -3.650258,-0.4404 -6.966428,2.16167 -7.406838,5.81195 -0.44046,3.65026 2.16164,6.96645 5.81192,7.40689 3.650298,0.44043 6.966498,-2.16168 7.406918,-5.81197 0.44039,-3.65031 -2.16173,-6.96648 -5.812,-7.40687 z"
       style="fill:#191919;fill-opacity:1;stroke:none;stroke-width:0.50323343;stroke-linecap:round;stroke-linejoin:round;stroke-miterlimit:4;stroke-dasharray:none;stroke-opacity:1" />
  </g>
</svg>
