<?xml version="1.0" encoding="UTF-8" standalone="no"?>
<svg
   xmlns:dc="http://purl.org/dc/elements/1.1/"
   xmlns:cc="http://creativecommons.org/ns#"
   xmlns:rdf="http://www.w3.org/1999/02/22-rdf-syntax-ns#"
   xmlns:svg="http://www.w3.org/2000/svg"
   xmlns="http://www.w3.org/2000/svg"
   xmlns:sodipodi="http://sodipodi.sourceforge.net/DTD/sodipodi-0.dtd"
   xmlns:inkscape="http://www.inkscape.org/namespaces/inkscape"
   id="svg1293"
   version="1.1"
   viewBox="0 0 128.16101 29.243006"
   height="110.52474"
   width="484.38809"
   sodipodi:docname="SimpleLogo.svg"
   inkscape:export-filename="/home/digglesby/PRTCover.png"
   inkscape:export-xdpi="96"
   inkscape:export-ydpi="96"
   inkscape:version="0.92.3 (2405546, 2018-03-11)">
  <sodipodi:namedview
     pagecolor="#ffffff"
     bordercolor="#666666"
     borderopacity="1"
     objecttolerance="10"
     gridtolerance="10"
     guidetolerance="10"
     inkscape:pageopacity="0"
     inkscape:pageshadow="2"
     inkscape:window-width="1596"
     inkscape:window-height="861"
     id="namedview1394"
     showgrid="false"
     inkscape:zoom="0.28463747"
     inkscape:cx="1121.4533"
     inkscape:cy="178.13335"
     inkscape:window-x="0"
     inkscape:window-y="18"
     inkscape:window-maximized="0"
     inkscape:current-layer="layer1" />
  <defs
     id="defs1287" />
  <metadata
     id="metadata1290">
    <rdf:RDF>
      <cc:Work
         rdf:about="">
        <dc:format>image/svg+xml</dc:format>
        <dc:type
           rdf:resource="http://purl.org/dc/dcmitype/StillImage" />
        <dc:title></dc:title>
      </cc:Work>
    </rdf:RDF>
  </metadata>
  <g
     transform="translate(2.092413,-66.932067)"
     id="layer1">
    <g
       transform="translate(-129.48929,-96.519513)"
       id="g1288">
      <circle
         style="fill:#e5d9c9;fill-opacity:1;stroke:none;stroke-width:0.1;stroke-linecap:round;stroke-linejoin:round;stroke-miterlimit:4;stroke-dasharray:none;stroke-opacity:1;paint-order:stroke fill markers"
         id="path1799"
         cx="142.01511"
         cy="178.06981"
         r="11.972396" />
      <g
         id="g1781"
         transform="matrix(0.87431533,-0.87431533,0.7900118,0.7900118,-35.993586,244.31747)">
        <path
           style="fill:#7a4674;fill-opacity:1;stroke:none;stroke-width:17.76901436;stroke-miterlimit:4;stroke-dasharray:none;stroke-opacity:1"
           d="M -219.50818,532.73032 -231.25,544.49805 v 8.95898 l 14.85547,-14.85547 z"
           transform="matrix(0.15130887,0.1674553,-0.15130887,0.1674553,247.69308,13.520959)"
           id="path1771" />
        <path
           style="fill:#a4344a;fill-opacity:1;stroke:none;stroke-width:17.76901436;stroke-miterlimit:4;stroke-dasharray:none;stroke-opacity:1"
           d="M -216.07227,539.2168 -231.25,554.39453 v 8.95703 l 19.38281,-19.38281 z"
           transform="matrix(0.15130887,0.1674553,-0.15130887,0.1674553,247.69308,13.520959)"
           id="path1773" />
        <path
           style="fill:#c24146;fill-opacity:1;stroke:none;stroke-width:17.76901436;stroke-miterlimit:4;stroke-dasharray:none;stroke-opacity:1"
           d="M -213.42578,546.31836 -231.25,564.14258 v 8.87695 h 0.082 l 24.14453,-24.14453 z"
           transform="matrix(0.15130887,0.1674553,-0.15130887,0.1674553,247.69308,13.520959)"
           id="path1775" />
        <path
           style="fill:#da6f37;fill-opacity:1;stroke:none;stroke-width:17.76901436;stroke-miterlimit:4;stroke-dasharray:none;stroke-opacity:1"
           d="m -208.39648,551.03906 -21.98243,21.98047 h 8.95899 l 16.32031,-16.32031 z"
           transform="matrix(0.15130887,0.1674553,-0.15130887,0.1674553,247.69308,13.520959)"
           id="path1777" />
        <path
           style="fill:#e8a353;fill-opacity:1;stroke:none;stroke-width:17.76901436;stroke-miterlimit:4;stroke-dasharray:none;stroke-opacity:1"
           d="m -203.11719,555.50586 -17.51367,17.51367 h 8.95898 l 12.33399,-12.33398 z"
           transform="matrix(0.15130887,0.1674553,-0.15130887,0.1674553,247.69308,13.520959)"
           id="path1779" />
      </g>
      <g
         style="fill:#191919;fill-opacity:1"
         transform="matrix(0.66700336,-0.66700336,0.66700336,0.66700336,-63.59725,152.83989)"
         id="g1769">
        <path
           id="path1767"
           d="m 127.60058,167.40398 a 0.48932033,0.48932033 0 0 0 -0.43979,0.31991 l -1.48334,4.45065 v 4.77056 h 0.9889 v -6.2e-4 c 0,-1.20304 0.98779,-2.19023 2.19084,-2.19023 1.20304,0 2.19272,0.98719 2.19272,2.19023 v 6.2e-4 h 8.33916 v -6.2e-4 c 0,-1.20304 0.98718,-2.19023 2.19023,-2.19023 1.20306,0 2.19023,0.98719 2.19023,2.19023 v 6.2e-4 h 0.99015 v -4.77056 l -1.48584,-4.45687 a 0.48932033,0.48932033 0 0 0 -0.43667,-0.31369 h -0.005 -1.25289 -13.97376 z m 1.02367,1.59019 h 1.39515 a 0.48932033,0.48932033 0 0 1 0.42861,0.45408 v 2.72629 0.95411 h -3.18038 v -0.95411 l 0.96778,-2.90209 a 0.48932033,0.48932033 0 0 1 0.38884,-0.27828 z m 3.83819,0 h 2.32503 a 0.48932033,0.48932033 0 0 1 0.4311,0.45097 v 3.68351 h -3.18038 v -3.73818 a 0.48932033,0.48932033 0 0 1 0.42425,-0.3963 z m 7.95591,0 h 1.397 a 0.48932033,0.48932033 0 0 1 0.39072,0.29009 l 0.96342,2.89028 v 0.95411 h -3.18037 v -0.95411 -2.75176 a 0.48932033,0.48932033 0 0 1 0.42923,-0.42861 z m -11.56053,6.36075 a 1.5901858,1.5901858 0 0 0 -1.59019,1.59018 1.5901858,1.5901858 0 0 0 1.59019,1.59019 1.5901858,1.5901858 0 0 0 1.59019,-1.59019 1.5901858,1.5901858 0 0 0 -1.59019,-1.59018 z m 12.72148,0 a 1.5901858,1.5901858 0 0 0 -1.59018,1.59018 1.5901858,1.5901858 0 0 0 1.59018,1.59019 1.5901858,1.5901858 0 0 0 1.59019,-1.59019 1.5901858,1.5901858 0 0 0 -1.59019,-1.59018 z"
           style="fill:#191919;fill-opacity:1;stroke:none;stroke-width:0.12020305;stroke-linecap:round;stroke-linejoin:round;stroke-miterlimit:4;stroke-dasharray:none;stroke-opacity:1" />
      </g>
    </g>
    <g
       id="text1273-3"
       style="font-style:normal;font-weight:normal;font-size:17.03509903px;line-height:1.25;font-family:sans-serif;letter-spacing:0px;word-spacing:0px;fill:#191919;fill-opacity:1;stroke:none;stroke-width:0.42587748"
       aria-label="PRT Scanner">
      <path
         id="path903"
         style="font-style:normal;font-variant:normal;font-weight:bold;font-stretch:normal;font-family:Helvetica;-inkscape-font-specification:'Helvetica Bold';letter-spacing:-0.87073153px;fill:#191919;fill-opacity:1;stroke-width:0.42587748"
         d="M 27.65702,93.213158 V 80.952544 h 5.340104 q 1.846578,0 2.944544,0.948243 1.097965,0.948243 1.097965,2.936226 0,2.170977 -1.097965,3.069312 -1.097966,0.898335 -3.135856,0.898335 h -2.603509 v 4.408498 z m 2.545283,-6.521249 h 2.387243 q 0.906653,0 1.405728,-0.44085 0.507394,-0.44085 0.507394,-1.39741 0,-0.956561 -0.507394,-1.364139 -0.499075,-0.407578 -1.405728,-0.407578 h -2.387243 z" />
      <path
         id="path905"
         style="font-style:normal;font-variant:normal;font-weight:bold;font-stretch:normal;font-family:Helvetica;-inkscape-font-specification:'Helvetica Bold';letter-spacing:-0.87073153px;fill:#191919;fill-opacity:1;stroke-width:0.42587748"
         d="M 38.165202,93.213158 V 80.952544 h 6.013856 q 1.289278,0.02495 1.979665,0.316081 0.698705,0.291128 1.181145,0.856746 0.39926,0.465804 0.632161,1.031422 0.232902,0.565619 0.232902,1.289278 0,0.873381 -0.44085,1.721809 -0.440849,0.84011 -1.455636,1.189462 0.848428,0.341035 1.197781,0.973197 0.35767,0.623844 0.35767,1.913121 v 0.823474 q 0,0.84011 0.06654,1.139555 0.09981,0.474122 0.465803,0.698706 v 0.307763 H 45.576469 Q 45.460018,92.80558 45.41011,92.556042 45.310295,92.040331 45.301977,91.499666 l -0.01664,-1.139555 Q 45.268706,89.187285 44.85281,88.796342 44.445232,88.4054 43.313994,88.4054 h -2.645098 v 4.807758 z m 2.503694,-6.83733 h 2.902954 q 0.865064,0 1.297595,-0.19963 0.765249,-0.349353 0.765249,-1.380775 0,-1.114601 -0.740295,-1.497225 -0.415896,-0.216266 -1.247688,-0.216266 h -2.977815 z" />
      <path
         id="path907"
         style="font-style:normal;font-variant:normal;font-weight:bold;font-stretch:normal;font-family:Helvetica;-inkscape-font-specification:'Helvetica Bold';letter-spacing:-0.87073153px;fill:#191919;fill-opacity:1;stroke-width:0.42587748"
         d="m 48.523662,83.123521 v -2.170977 h 9.931595 v 2.170977 H 54.787055 V 93.213158 H 52.2085 V 83.123521 Z" />
      <path
         id="path909"
         style="font-style:normal;font-variant:normal;font-weight:bold;font-stretch:normal;font-family:Helvetica;-inkscape-font-specification:'Helvetica Bold';letter-spacing:-0.87073153px;fill:#191919;fill-opacity:1;stroke-width:0.42587748"
         d="m 62.353345,89.428504 h 2.445469 q 0.116451,0.84011 0.457485,1.256006 0.623844,0.756931 2.137706,0.756931 0.906653,0 1.472271,-0.19963 1.073012,-0.382625 1.073012,-1.422364 0,-0.607209 -0.532347,-0.939925 -0.532347,-0.324399 -1.671902,-0.573937 l -1.297595,-0.291127 q -1.913122,-0.432532 -2.645099,-0.939925 -1.23937,-0.848428 -1.23937,-2.653416 0,-1.646948 1.197781,-2.736596 1.19778,-1.089647 3.51848,-1.089647 1.938075,0 3.302214,1.031422 1.372457,1.023104 1.439,2.977815 h -2.462104 q -0.06654,-1.106283 -0.964879,-1.572087 -0.59889,-0.307763 -1.488908,-0.307763 -0.989832,0 -1.580404,0.39926 -0.590572,0.39926 -0.590572,1.114602 0,0.657115 0.582254,0.981514 0.374306,0.216266 1.59704,0.507393 l 2.112752,0.507393 q 1.389092,0.332717 2.096116,0.890018 1.097965,0.865063 1.097965,2.503693 0,1.68022 -1.289277,2.794821 -1.28096,1.106284 -3.626613,1.106284 -2.395561,0 -3.768018,-1.089648 -1.372457,-1.097965 -1.372457,-3.011087 z m 4.932527,-8.850266 z" />
      <path
         id="path911"
         style="font-style:normal;font-variant:normal;font-weight:bold;font-stretch:normal;font-family:Helvetica;-inkscape-font-specification:'Helvetica Bold';letter-spacing:-0.87073153px;fill:#191919;fill-opacity:1;stroke-width:0.42587748"
         d="m 72.745077,88.862886 q 0,-2.337336 1.139555,-3.634931 1.139555,-1.297595 3.144174,-1.297595 1.705173,0 2.786503,0.765248 1.089647,0.765249 1.289277,2.703324 h -2.428832 q -0.06654,-0.507393 -0.341035,-0.914971 -0.39926,-0.548983 -1.23937,-0.548983 -1.19778,0 -1.63863,1.189463 -0.232902,0.632161 -0.232902,1.680219 0,0.998151 0.232902,1.605359 0.424214,1.131237 1.59704,1.131237 0.831792,0 1.181145,-0.449168 0.349353,-0.449167 0.424214,-1.164509 h 2.420514 q -0.08318,1.08133 -0.781884,2.046209 -1.114601,1.555451 -3.302214,1.555451 -2.187613,0 -3.219035,-1.297596 -1.031422,-1.297595 -1.031422,-3.368757 z m 4.325318,-4.95748 z" />
      <path
         id="path913"
         style="font-style:normal;font-variant:normal;font-weight:bold;font-stretch:normal;font-family:Helvetica;-inkscape-font-specification:'Helvetica Bold';letter-spacing:-0.87073153px;fill:#191919;fill-opacity:1;stroke-width:0.42587748"
         d="m 81.256956,90.800961 q 0,-1.671902 1.289278,-2.420515 0.707023,-0.407578 2.07948,-0.582254 l 0.806838,-0.09982 q 0.657116,-0.08318 0.939925,-0.207948 0.507393,-0.216266 0.507393,-0.673751 0,-0.557301 -0.390942,-0.765249 -0.382625,-0.216266 -1.131237,-0.216266 -0.84011,0 -1.189463,0.415896 -0.249537,0.307763 -0.332717,0.831792 h -2.287427 q 0.07486,-1.189462 0.665433,-1.954711 0.939925,-1.19778 3.227353,-1.19778 1.488907,0 2.645098,0.590572 1.156191,0.590572 1.156191,2.229202 v 4.15896 q 0,0.432532 0.01664,1.048058 0.02495,0.465803 0.141404,0.632162 0.116451,0.166358 0.349353,0.274491 v 0.349353 h -2.578555 q -0.108133,-0.274492 -0.149722,-0.515711 -0.04159,-0.24122 -0.06654,-0.548983 -0.490757,0.532347 -1.131237,0.906653 -0.765248,0.44085 -1.730127,0.44085 -1.231052,0 -2.03789,-0.698705 -0.798521,-0.707023 -0.798521,-1.996301 z m 2.378925,-0.174676 q 0,0.607208 0.332717,0.881699 0.341035,0.266174 0.823474,0.266174 0.765249,0 1.405729,-0.449168 0.648797,-0.449168 0.673751,-1.63863 v -0.8817 q -0.224584,0.141405 -0.457486,0.232902 -0.224583,0.08318 -0.623844,0.158041 l -0.532346,0.09981 q -0.748613,0.133086 -1.073012,0.324398 -0.548983,0.324399 -0.548983,1.006469 z m 1.92144,-6.720879 z" />
      <path
         id="path915"
         style="font-style:normal;font-variant:normal;font-weight:bold;font-stretch:normal;font-family:Helvetica;-inkscape-font-specification:'Helvetica Bold';letter-spacing:-0.87073153px;fill:#191919;fill-opacity:1;stroke-width:0.42587748"
         d="m 90.500816,93.213158 v -9.049897 h 2.287428 v 1.322549 q 0.457486,-0.698705 0.865064,-1.006468 0.731977,-0.548982 1.854896,-0.548982 1.405728,0 2.295746,0.740294 0.898335,0.731977 0.898335,2.437151 v 6.105353 h -2.428833 v -5.514781 q 0,-0.715341 -0.191312,-1.097965 -0.349352,-0.698706 -1.330867,-0.698706 -1.206098,0 -1.655266,1.023105 -0.232901,0.540664 -0.232901,1.380774 v 4.907573 z m 4.134006,-9.307752 z" />
      <path
         id="path917"
         style="font-style:normal;font-variant:normal;font-weight:bold;font-stretch:normal;font-family:Helvetica;-inkscape-font-specification:'Helvetica Bold';letter-spacing:-0.87073153px;fill:#191919;fill-opacity:1;stroke-width:0.42587748"
         d="m 100.04412,93.213158 v -9.049897 h 2.28743 v 1.322549 q 0.45748,-0.698705 0.86506,-1.006468 0.73198,-0.548982 1.8549,-0.548982 1.40573,0 2.29574,0.740294 0.89834,0.731977 0.89834,2.437151 v 6.105353 h -2.42883 v -5.514781 q 0,-0.715341 -0.19132,-1.097965 -0.34935,-0.698706 -1.33086,-0.698706 -1.2061,0 -1.65527,1.023105 -0.2329,0.540664 -0.2329,1.380774 v 4.907573 z m 4.13401,-9.307752 z" />
      <path
         id="path919"
         style="font-style:normal;font-variant:normal;font-weight:bold;font-stretch:normal;font-family:Helvetica;-inkscape-font-specification:'Helvetica Bold';letter-spacing:-0.87073153px;fill:#191919;fill-opacity:1;stroke-width:0.42587748"
         d="m 108.85545,88.771389 q 0,-2.353972 1.18946,-3.609977 1.19778,-1.256006 3.10258,-1.256006 1.13124,0 2.0379,0.424214 0.90665,0.424214 1.49722,1.339185 0.53235,0.806838 0.69039,1.871532 0.0749,0.524029 0.0749,1.447318 0,0.166358 0,0.349352 h -6.20517 q 0.0499,1.364139 0.85675,1.913122 0.49075,0.341034 1.18114,0.341034 0.73198,0 1.18946,-0.415896 0.24954,-0.224583 0.44085,-0.623844 h 2.42052 q -0.0915,0.806839 -0.84011,1.638631 -1.16451,1.322549 -3.26063,1.322549 -1.73012,0 -3.05267,-1.114601 -1.32255,-1.114602 -1.32255,-3.626613 z m 2.44547,-0.998151 h 3.68483 q -0.0582,-0.939925 -0.57393,-1.422364 -0.50739,-0.490757 -1.26433,-0.490757 -0.82347,0 -1.28095,0.515711 -0.44917,0.515711 -0.56562,1.39741 z m 2.01293,-3.867832 z" />
      <path
         id="path921"
         style="font-style:normal;font-variant:normal;font-weight:bold;font-stretch:normal;font-family:Helvetica;-inkscape-font-specification:'Helvetica Bold';letter-spacing:-0.87073153px;fill:#191919;fill-opacity:1;stroke-width:0.42587748"
         d="M 118.15753,93.213158 V 84.146625 H 120.42 v 1.580405 q 0.54899,-0.906653 0.95656,-1.23937 0.66544,-0.5573 1.73013,-0.5573 0.0666,0 0.10814,0.0083 0.0499,0 0.20794,0.0083 v 2.428833 q -0.22458,-0.02495 -0.39926,-0.03327 -0.17467,-0.0083 -0.28281,-0.0083 -1.43068,0 -1.92144,0.931607 -0.27449,0.524029 -0.27449,1.613677 v 4.333636 z" />
    </g>
  </g>
</svg>
